<svg xmlns="http://www.w3.org/2000/svg" xmlns:xlink="http://www.w3.org/1999/xlink" width="226" height="54" viewBox="0 0 226 54" role="img" aria-label="PORTFOLIO — looplord.vercel.app"><defs>
      <linearGradient id="pFill" x1="0" y1="0" x2="0" y2="1">
        <stop offset="0" stop-color="#101B29"/><stop offset="1" stop-color="#080E17"/>
      </linearGradient>
      <linearGradient id="pSheen" x1="0" y1="0" x2="1" y2="0">
        <stop offset="0" stop-color="#FFFFFF" stop-opacity="0"/>
        <stop offset=".5" stop-color="#FFFFFF" stop-opacity=".18"/>
        <stop offset="1" stop-color="#FFFFFF" stop-opacity="0"/>
      </linearGradient>
      <linearGradient id="pGlow" x1="0" y1="0" x2="1" y2="0">
        <stop offset="0" stop-color="#22D3EE" stop-opacity="0"/>
        <stop offset=".5" stop-color="#22D3EE" stop-opacity=".85"/>
        <stop offset="1" stop-color="#22D3EE" stop-opacity="0"/>
      </linearGradient>
    </defs><ellipse cx="113" cy="30" rx="94.92" ry="20" fill="url(#pGlow)" opacity=".22" filter="url(#pblur)"/><defs><filter id="pblur" x="-40%" y="-40%" width="180%" height="180%"><feGaussianBlur stdDeviation="9"/></filter></defs><rect x="0.5" y="0.5" width="225" height="53" rx="12" fill="url(#pFill)" stroke="#1E3552"/><rect x="1" y="1" width="224" height="1" fill="url(#pSheen)"/><rect x="87" y="0.5" width="52" height="1.4" fill="url(#pGlow)" opacity=".9"/><g transform="translate(20 19) scale(0.67)"><path d="M12 2.2a9.8 9.8 0 1 0 0 19.6 9.8 9.8 0 0 0 0-19.6Zm6.9 6.1h-2.6a15.6 15.6 0 0 0-1.3-3.4 8 8 0 0 1 3.9 3.4ZM12 4.2c.8 1.1 1.5 2.4 1.9 4.1h-3.8c.4-1.7 1.1-3 1.9-4.1ZM4.3 13.4a8 8 0 0 1 0-2.8h3c-.1.9-.1 1.9 0 2.8h-3Zm.8 2h2.6c.3 1.2.8 2.4 1.3 3.4a8 8 0 0 1-3.9-3.4Zm2.6-6.8H5.1a8 8 0 0 1 3.9-3.4c-.5 1-1 2.2-1.3 3.4Zm4.3 9.8c-.8-1.1-1.5-2.4-1.9-4.1h3.8c-.4 1.7-1.1 3-1.9 4.1Zm2.2 2.3c.5-1 1-2.2 1.3-3.4h2.6a8 8 0 0 1-3.9 3.4Zm1.9-5.5c.1-.9.1-1.9 0-2.8h3.2a8 8 0 0 1 0 2.8h-3.2Z" fill="#22D3EE" opacity="0.95"/></g><text x="46" y="25" font-family="ui-monospace, 'SFMono-Regular', 'SF Mono', Menlo, Consolas, 'Liberation Mono', monospace" font-size="12.5" font-weight="600" fill="#F2F7FD" letter-spacing="1.6">PORTFOLIO</text><text x="46" y="41" font-family="ui-monospace, 'SFMono-Regular', 'SF Mono', Menlo, Consolas, 'Liberation Mono', monospace" font-size="10" font-weight="400" fill="#7C8EA9" letter-spacing="0.4">looplord.vercel.app</text><text x="208" y="32" font-family="ui-monospace, 'SFMono-Regular', 'SF Mono', Menlo, Consolas, 'Liberation Mono', monospace" font-size="13" font-weight="400" fill="#22D3EE" text-anchor="end" opacity="0.85">↗</text></svg>