<svg xmlns="http://www.w3.org/2000/svg" xmlns:xlink="http://www.w3.org/1999/xlink" width="1000" height="574" viewBox="0 0 1000 574" role="img" aria-label="GitHub pulse — repositories, stars, followers, contribution activity and language mix for @mirkashi"><defs>
    <linearGradient id="panelFill" x1="0" y1="0" x2="0" y2="1">
      <stop offset="0" stop-color="#0B1220"/>
      <stop offset="1" stop-color="#080D16"/>
    </linearGradient>
    <linearGradient id="surface" x1="0" y1="0" x2="1" y2="1">
      <stop offset="0" stop-color="#060A11"/>
      <stop offset="0.55" stop-color="#080E17"/>
      <stop offset="1" stop-color="#04070C"/>
    </linearGradient>
    <linearGradient id="hairline" x1="0" y1="0" x2="1" y2="0">
      <stop offset="0" stop-color="#22D3EE" stop-opacity="0"/>
      <stop offset="0.5" stop-color="#22D3EE" stop-opacity=".55"/>
      <stop offset="1" stop-color="#A78BFA" stop-opacity="0"/>
    </linearGradient>
    <linearGradient id="topSheen" x1="0" y1="0" x2="1" y2="0">
      <stop offset="0" stop-color="#FFFFFF" stop-opacity="0"/>
      <stop offset="0.5" stop-color="#FFFFFF" stop-opacity=".22"/>
      <stop offset="1" stop-color="#FFFFFF" stop-opacity="0"/>
    </linearGradient>
    <radialGradient id="glowCyan" cx="50%" cy="50%" r="50%">
      <stop offset="0" stop-color="#22D3EE" stop-opacity=".35"/>
      <stop offset="1" stop-color="#22D3EE" stop-opacity="0"/>
    </radialGradient>
    <radialGradient id="glowViolet" cx="50%" cy="50%" r="50%">
      <stop offset="0" stop-color="#A78BFA" stop-opacity=".3"/>
      <stop offset="1" stop-color="#A78BFA" stop-opacity="0"/>
    </radialGradient>
    <pattern id="grid16" width="16" height="16" patternUnits="userSpaceOnUse">
      <path d="M16 0H0V16" fill="none" stroke="#101B2B" stroke-width="1" opacity=".5"/>
    </pattern>
    <filter id="soft" x="-40%" y="-40%" width="180%" height="180%">
      <feGaussianBlur stdDeviation="18"/>
    </filter>
    <filter id="soft8" x="-40%" y="-40%" width="180%" height="180%">
      <feGaussianBlur stdDeviation="8"/>
    </filter>
    <filter id="soft3" x="-40%" y="-40%" width="180%" height="180%">
      <feGaussianBlur stdDeviation="3"/>
    </filter>
    <clipPath id="clipSurface"><rect x="0" y="0" width="1200" height="100%" rx="0"/></clipPath>
  </defs><linearGradient id="pulseFade" x1="0" y1="0" x2="0" y2="1"><stop offset="0%" stop-color="#22D3EE" stop-opacity=".25"/><stop offset="100%" stop-color="#22D3EE" stop-opacity="0"/></linearGradient><clipPath id="frame"><rect x="0" y="0" width="1000" height="574" rx="18"/></clipPath><g clip-path="url(#frame)"><rect width="1000" height="574" fill="url(#surface)"/><rect width="1000" height="574" fill="url(#grid16)" opacity=".42"/><ellipse cx="500" cy="-68.88" rx="420" ry="287" fill="url(#glowCyan)" opacity=".5"/><ellipse cx="60" cy="493.64" rx="340" ry="258.3" fill="url(#glowViolet)" opacity=".45"/><defs><linearGradient id="sh04" x1="0" y1="0" x2="1" y2="0"><stop offset="0" stop-color="#1E4A63" stop-opacity="0.55"/><stop offset="1" stop-color="transparent" stop-opacity="0"/></linearGradient></defs><rect x="32" y="46" width="936" height="1" fill="url(#sh04)"/><text x="32" y="76" font-family="ui-monospace, 'SFMono-Regular', 'SF Mono', Menlo, Consolas, 'Liberation Mono', monospace" font-size="12" font-weight="600" fill="#A78BFA" letter-spacing="3.6">04 / GITHUB PULSE</text><text x="32" y="118" font-family="'Segoe UI', -apple-system, BlinkMacSystemFont, 'Helvetica Neue', Helvetica, Arial, sans-serif" font-size="32" font-weight="650" fill="#FFFFFF" letter-spacing="-0.4">The signal, not the noise</text><text x="968" y="119" font-family="ui-monospace, 'SFMono-Regular', 'SF Mono', Menlo, Consolas, 'Liberation Mono', monospace" font-size="11" font-weight="400" fill="#7C8EA9" text-anchor="end" letter-spacing="1.2">SYNCED 2026-10-02</text><rect x="32" y="142" width="223.5" height="112" rx="16" fill="url(#panelFill)" stroke="#16243A" stroke-width="1"/><rect x="33" y="143" width="221.5" height="1" fill="url(#topSheen)"/><g transform="translate(52 158) scale(0.5)"><path d="M12 .297c-6.63 0-12 5.373-12 12 0 5.303 3.438 9.8 8.205 11.385.6.113.82-.258.82-.577 0-.285-.01-1.04-.015-2.04-3.338.724-4.042-1.61-4.042-1.61C4.422 18.07 3.633 17.7 3.633 17.7c-1.087-.744.084-.729.084-.729 1.205.084 1.838 1.236 1.838 1.236 1.07 1.835 2.809 1.305 3.495.998.108-.776.417-1.305.76-1.605-2.665-.3-5.466-1.332-5.466-5.93 0-1.31.465-2.38 1.235-3.22-.135-.303-.54-1.523.105-3.176 0 0 1.005-.322 3.3 1.23.96-.267 1.98-.399 3-.405 1.02.006 2.04.138 3 .405 2.28-1.552 3.285-1.23 3.285-1.23.645 1.653.24 2.873.12 3.176.765.84 1.23 1.91 1.23 3.22 0 4.61-2.805 5.625-5.475 5.92.42.36.81 1.096.81 2.22 0 1.606-.015 2.896-.015 3.286 0 .315.21.69.825.57C20.565 22.092 24 17.592 24 12.297c0-6.627-5.373-12-12-12" fill="#22D3EE" opacity="0.8"/></g><text x="72" y="167" font-family="ui-monospace, 'SFMono-Regular', 'SF Mono', Menlo, Consolas, 'Liberation Mono', monospace" font-size="9.5" font-weight="600" fill="#5A6B85" letter-spacing="2.2">PUBLIC REPOS</text><ellipse cx="225.5" cy="202" rx="46" ry="30" fill="url(#glowCyan)" opacity=".28"/><text x="52" y="208" font-family="'Segoe UI', -apple-system, BlinkMacSystemFont, 'Helvetica Neue', Helvetica, Arial, sans-serif" font-size="36" font-weight="700" fill="#FFFFFF" letter-spacing="-1.2">16</text><text x="52" y="230" font-family="'Segoe UI', -apple-system, BlinkMacSystemFont, 'Helvetica Neue', Helvetica, Arial, sans-serif" font-size="10.5" font-weight="400" fill="#5A6B85">clean, shipped, public</text><rect x="269.5" y="142" width="223.5" height="112" rx="16" fill="url(#panelFill)" stroke="#16243A" stroke-width="1"/><rect x="270.5" y="143" width="221.5" height="1" fill="url(#topSheen)"/><g transform="translate(289.5 158) scale(0.5)"><path d="M13.4 1.5 3.6 13.4h6.2l-1.2 9.1 9.8-11.9h-6.2l1.2-9.1Z" fill="#A78BFA" opacity="0.8"/></g><text x="309.5" y="167" font-family="ui-monospace, 'SFMono-Regular', 'SF Mono', Menlo, Consolas, 'Liberation Mono', monospace" font-size="9.5" font-weight="600" fill="#5A6B85" letter-spacing="2.2">STARS EARNED</text><ellipse cx="463" cy="202" rx="46" ry="30" fill="url(#glowCyan)" opacity=".28"/><text x="289.5" y="208" font-family="'Segoe UI', -apple-system, BlinkMacSystemFont, 'Helvetica Neue', Helvetica, Arial, sans-serif" font-size="36" font-weight="700" fill="#FFFFFF" letter-spacing="-1.2">20</text><text x="289.5" y="230" font-family="'Segoe UI', -apple-system, BlinkMacSystemFont, 'Helvetica Neue', Helvetica, Arial, sans-serif" font-size="10.5" font-weight="400" fill="#5A6B85">across those repos</text><rect x="507" y="142" width="223.5" height="112" rx="16" fill="url(#panelFill)" stroke="#16243A" stroke-width="1"/><rect x="508" y="143" width="221.5" height="1" fill="url(#topSheen)"/><g transform="translate(527 158) scale(0.5)"><path d="M12 6a6 6 0 1 1 0 12 6 6 0 0 1 0-12Z" fill="#5EEAD4" opacity="0.8"/></g><text x="547" y="167" font-family="ui-monospace, 'SFMono-Regular', 'SF Mono', Menlo, Consolas, 'Liberation Mono', monospace" font-size="9.5" font-weight="600" fill="#5A6B85" letter-spacing="2.2">FOLLOWERS</text><ellipse cx="700.5" cy="202" rx="46" ry="30" fill="url(#glowCyan)" opacity=".28"/><text x="527" y="208" font-family="'Segoe UI', -apple-system, BlinkMacSystemFont, 'Helvetica Neue', Helvetica, Arial, sans-serif" font-size="36" font-weight="700" fill="#FFFFFF" letter-spacing="-1.2">45</text><text x="527" y="230" font-family="'Segoe UI', -apple-system, BlinkMacSystemFont, 'Helvetica Neue', Helvetica, Arial, sans-serif" font-size="10.5" font-weight="400" fill="#5A6B85">building in public</text><rect x="744.5" y="142" width="223.5" height="112" rx="16" fill="url(#panelFill)" stroke="#16243A" stroke-width="1"/><rect x="745.5" y="143" width="221.5" height="1" fill="url(#topSheen)"/><g transform="translate(764.5 158) scale(0.5)"><path d="M13.4 1.5 3.6 13.4h6.2l-1.2 9.1 9.8-11.9h-6.2l1.2-9.1Z" fill="#8AB8FF" opacity="0.8"/></g><text x="784.5" y="167" font-family="ui-monospace, 'SFMono-Regular', 'SF Mono', Menlo, Consolas, 'Liberation Mono', monospace" font-size="9.5" font-weight="600" fill="#5A6B85" letter-spacing="2.2">CONTRIBUTIONS</text><ellipse cx="938" cy="202" rx="46" ry="30" fill="url(#glowCyan)" opacity=".28"/><text x="764.5" y="208" font-family="'Segoe UI', -apple-system, BlinkMacSystemFont, 'Helvetica Neue', Helvetica, Arial, sans-serif" font-size="36" font-weight="700" fill="#FFFFFF" letter-spacing="-1.2">1.5k</text><text x="764.5" y="230" font-family="'Segoe UI', -apple-system, BlinkMacSystemFont, 'Helvetica Neue', Helvetica, Arial, sans-serif" font-size="10.5" font-weight="400" fill="#5A6B85">in the last 12 months</text><rect x="32" y="272" width="458" height="68" rx="14" fill="#070C14" stroke="#16243A" stroke-width="1"/><rect x="33" y="273" width="456" height="1" fill="url(#topSheen)"/><text x="54" y="294" font-family="ui-monospace, 'SFMono-Regular', 'SF Mono', Menlo, Consolas, 'Liberation Mono', monospace" font-size="10" font-weight="600" fill="#22D3EE" letter-spacing="2.4">CONTRIBUTION GRID</text><text x="54" y="316" font-family="'Segoe UI', -apple-system, BlinkMacSystemFont, 'Helvetica Neue', Helvetica, Arial, sans-serif" font-size="11.5" font-weight="400" fill="#7C8EA9">the year above, live on github</text><text x="468" y="312" font-family="ui-monospace, 'SFMono-Regular', 'SF Mono', Menlo, Consolas, 'Liberation Mono', monospace" font-size="10.5" font-weight="600" fill="#22D3EE" text-anchor="end" letter-spacing="1.4">OPEN  →</text><rect x="522" y="272" width="458" height="68" rx="14" fill="#070C14" stroke="#16243A" stroke-width="1"/><rect x="523" y="273" width="456" height="1" fill="url(#topSheen)"/><text x="544" y="294" font-family="ui-monospace, 'SFMono-Regular', 'SF Mono', Menlo, Consolas, 'Liberation Mono', monospace" font-size="10" font-weight="600" fill="#A78BFA" letter-spacing="2.4">ACTIVITY GRAPH</text><text x="544" y="316" font-family="'Segoe UI', -apple-system, BlinkMacSystemFont, 'Helvetica Neue', Helvetica, Arial, sans-serif" font-size="11.5" font-weight="400" fill="#7C8EA9">commit velocity, pull requests, issues</text><text x="958" y="312" font-family="ui-monospace, 'SFMono-Regular', 'SF Mono', Menlo, Consolas, 'Liberation Mono', monospace" font-size="10.5" font-weight="600" fill="#A78BFA" text-anchor="end" letter-spacing="1.4">OPEN  →</text><rect x="32" y="366" width="936" height="1" fill="#101B2B"/><text x="32" y="384" font-family="ui-monospace, 'SFMono-Regular', 'SF Mono', Menlo, Consolas, 'Liberation Mono', monospace" font-size="10" font-weight="600" fill="#5A6B85" letter-spacing="2.4">LANGUAGE MIX · PRIMARY LANGUAGE PER REPO</text><rect x="32" y="396" width="326" height="18" rx="6" fill="#22D3EE" opacity="0.95"><title>TypeScript — 10 repos</title></rect><text x="44" y="408.5" font-family="ui-monospace, 'SFMono-Regular', 'SF Mono', Menlo, Consolas, 'Liberation Mono', monospace" font-size="9" font-weight="700" fill="#05121A" letter-spacing="1.2">TYPESCRIPT</text><rect x="361" y="396" width="163" height="18" rx="6" fill="#38BDF8" opacity="0.95"><title>JavaScript — 5 repos</title></rect><text x="373" y="408.5" font-family="ui-monospace, 'SFMono-Regular', 'SF Mono', Menlo, Consolas, 'Liberation Mono', monospace" font-size="9" font-weight="700" fill="#05121A" letter-spacing="1.2">JAVASCRIPT</text><rect x="527" y="396" width="130" height="18" rx="6" fill="#5EEAD4" opacity="0.95"><title>CSS — 4 repos</title></rect><text x="539" y="408.5" font-family="ui-monospace, 'SFMono-Regular', 'SF Mono', Menlo, Consolas, 'Liberation Mono', monospace" font-size="9" font-weight="700" fill="#05121A" letter-spacing="1.2">CSS</text><rect x="660" y="396" width="130" height="18" rx="6" fill="#8AB8FF" opacity="0.95"><title>HTML — 4 repos</title></rect><text x="672" y="408.5" font-family="ui-monospace, 'SFMono-Regular', 'SF Mono', Menlo, Consolas, 'Liberation Mono', monospace" font-size="9" font-weight="700" fill="#05121A" letter-spacing="1.2">HTML</text><rect x="793" y="396" width="33" height="18" rx="6" fill="#A78BFA" opacity="0.55"><title>C++ — 1 repos</title></rect><rect x="829" y="396" width="33" height="18" rx="6" fill="#7C8EA9" opacity="0.55"><title>Jupyter Notebook — 1 repos</title></rect><rect x="865" y="396" width="33" height="18" rx="6" fill="#5A6B85" opacity="0.55"><title>SCSS — 1 repos</title></rect><rect x="901" y="396" width="33" height="18" rx="6" fill="#41536B" opacity="0.55"><title>Shell — 1 repos</title></rect><rect x="937" y="396" width="33" height="18" rx="6" fill="#31425A" opacity="0.55"><title>Python — 1 repos</title></rect><rect x="32" y="447" width="9" height="9" rx="2.5" fill="#22D3EE" opacity="1"/><text x="51" y="456" font-family="'Segoe UI', -apple-system, BlinkMacSystemFont, 'Helvetica Neue', Helvetica, Arial, sans-serif" font-size="12.2" font-weight="450" fill="#EAF2FB">TypeScript</text><text x="304" y="456" font-family="ui-monospace, 'SFMono-Regular', 'SF Mono', Menlo, Consolas, 'Liberation Mono', monospace" font-size="10.5" font-weight="400" fill="#5A6B85" text-anchor="end" letter-spacing="0.6">10 · 36%</text><rect x="32" y="477" width="9" height="9" rx="2.5" fill="#38BDF8" opacity="1"/><text x="51" y="486" font-family="'Segoe UI', -apple-system, BlinkMacSystemFont, 'Helvetica Neue', Helvetica, Arial, sans-serif" font-size="12.2" font-weight="450" fill="#EAF2FB">JavaScript</text><text x="304" y="486" font-family="ui-monospace, 'SFMono-Regular', 'SF Mono', Menlo, Consolas, 'Liberation Mono', monospace" font-size="10.5" font-weight="400" fill="#5A6B85" text-anchor="end" letter-spacing="0.6">5 · 18%</text><rect x="32" y="507" width="9" height="9" rx="2.5" fill="#5EEAD4" opacity="1"/><text x="51" y="516" font-family="'Segoe UI', -apple-system, BlinkMacSystemFont, 'Helvetica Neue', Helvetica, Arial, sans-serif" font-size="12.2" font-weight="450" fill="#EAF2FB">CSS</text><text x="304" y="516" font-family="ui-monospace, 'SFMono-Regular', 'SF Mono', Menlo, Consolas, 'Liberation Mono', monospace" font-size="10.5" font-weight="400" fill="#5A6B85" text-anchor="end" letter-spacing="0.6">4 · 14%</text><rect x="344" y="447" width="9" height="9" rx="2.5" fill="#8AB8FF" opacity="1"/><text x="363" y="456" font-family="'Segoe UI', -apple-system, BlinkMacSystemFont, 'Helvetica Neue', Helvetica, Arial, sans-serif" font-size="12.2" font-weight="450" fill="#EAF2FB">HTML</text><text x="616" y="456" font-family="ui-monospace, 'SFMono-Regular', 'SF Mono', Menlo, Consolas, 'Liberation Mono', monospace" font-size="10.5" font-weight="400" fill="#5A6B85" text-anchor="end" letter-spacing="0.6">4 · 14%</text><rect x="344" y="477" width="9" height="9" rx="2.5" fill="#A78BFA" opacity="0.6"/><text x="363" y="486" font-family="'Segoe UI', -apple-system, BlinkMacSystemFont, 'Helvetica Neue', Helvetica, Arial, sans-serif" font-size="12.2" font-weight="450" fill="#EAF2FB">C++</text><text x="616" y="486" font-family="ui-monospace, 'SFMono-Regular', 'SF Mono', Menlo, Consolas, 'Liberation Mono', monospace" font-size="10.5" font-weight="400" fill="#5A6B85" text-anchor="end" letter-spacing="0.6">1 · 4%</text><rect x="344" y="507" width="9" height="9" rx="2.5" fill="#7C8EA9" opacity="0.6"/><text x="363" y="516" font-family="'Segoe UI', -apple-system, BlinkMacSystemFont, 'Helvetica Neue', Helvetica, Arial, sans-serif" font-size="12.2" font-weight="450" fill="#EAF2FB">Jupyter Notebook</text><text x="616" y="516" font-family="ui-monospace, 'SFMono-Regular', 'SF Mono', Menlo, Consolas, 'Liberation Mono', monospace" font-size="10.5" font-weight="400" fill="#5A6B85" text-anchor="end" letter-spacing="0.6">1 · 4%</text><rect x="656" y="447" width="9" height="9" rx="2.5" fill="#5A6B85" opacity="0.6"/><text x="675" y="456" font-family="'Segoe UI', -apple-system, BlinkMacSystemFont, 'Helvetica Neue', Helvetica, Arial, sans-serif" font-size="12.2" font-weight="450" fill="#EAF2FB">SCSS</text><text x="928" y="456" font-family="ui-monospace, 'SFMono-Regular', 'SF Mono', Menlo, Consolas, 'Liberation Mono', monospace" font-size="10.5" font-weight="400" fill="#5A6B85" text-anchor="end" letter-spacing="0.6">1 · 4%</text><rect x="656" y="477" width="9" height="9" rx="2.5" fill="#41536B" opacity="0.6"/><text x="675" y="486" font-family="'Segoe UI', -apple-system, BlinkMacSystemFont, 'Helvetica Neue', Helvetica, Arial, sans-serif" font-size="12.2" font-weight="450" fill="#EAF2FB">Shell</text><text x="928" y="486" font-family="ui-monospace, 'SFMono-Regular', 'SF Mono', Menlo, Consolas, 'Liberation Mono', monospace" font-size="10.5" font-weight="400" fill="#5A6B85" text-anchor="end" letter-spacing="0.6">1 · 4%</text><rect x="656" y="507" width="9" height="9" rx="2.5" fill="#31425A" opacity="0.6"/><text x="675" y="516" font-family="'Segoe UI', -apple-system, BlinkMacSystemFont, 'Helvetica Neue', Helvetica, Arial, sans-serif" font-size="12.2" font-weight="450" fill="#EAF2FB">Python</text><text x="928" y="516" font-family="ui-monospace, 'SFMono-Regular', 'SF Mono', Menlo, Consolas, 'Liberation Mono', monospace" font-size="10.5" font-weight="400" fill="#5A6B85" text-anchor="end" letter-spacing="0.6">1 · 4%</text><rect x="32" y="548" width="936" height="1" fill="#101B2B"/><text x="32" y="568" font-family="ui-monospace, 'SFMono-Regular', 'SF Mono', Menlo, Consolas, 'Liberation Mono', monospace" font-size="10" font-weight="400" fill="#5A6B85" letter-spacing="1.2">SINCE 2023 · 28 PUBLIC REPOS · OWNER + STUDIO</text><text x="968" y="568" font-family="ui-monospace, 'SFMono-Regular', 'SF Mono', Menlo, Consolas, 'Liberation Mono', monospace" font-size="10" font-weight="400" fill="#5A6B85" text-anchor="end" letter-spacing="1.2">NUMBERS PULLED FROM THE GITHUB API — NOT A WIDGET</text><g stroke="#1E4A63" stroke-width="1.2" fill="none"><path d="M0 18 V0 H18" transform="translate(14 14)"/><path d="M0 18 V0 H-18" transform="translate(986 14)"/><path d="M0 18 V0 H18" transform="translate(986 560) rotate(180)"/><path d="M0 18 V0 H-18" transform="translate(14 560) rotate(180)"/></g></g><rect x="0.5" y="0.5" width="999" height="573" rx="17.5" fill="none" stroke="#16243A" stroke-width="1"/></svg>